<?xml version="1.0" encoding="UTF-8" standalone="no"?>
<!-- Created with Inkscape (http://www.inkscape.org/) -->

<svg
   xmlns:dc="http://purl.org/dc/elements/1.1/"
   xmlns:cc="http://creativecommons.org/ns#"
   xmlns:rdf="http://www.w3.org/1999/02/22-rdf-syntax-ns#"
   xmlns:svg="http://www.w3.org/2000/svg"
   xmlns="http://www.w3.org/2000/svg"
   xmlns:sodipodi="http://sodipodi.sourceforge.net/DTD/sodipodi-0.dtd"
   xmlns:inkscape="http://www.inkscape.org/namespaces/inkscape"
   width="800"
   height="450"
   id="svg2"
   version="1.1"
   inkscape:version="0.48.4 r9939"
   sodipodi:docname="indexMidNew.svg">
  <defs
     id="defs4" />
  <sodipodi:namedview
     id="base"
     pagecolor="#000000"
     bordercolor="#666666"
     borderopacity="1.0"
     inkscape:pageopacity="0"
     inkscape:pageshadow="2"
     inkscape:zoom="0.7"
     inkscape:cx="622.81762"
     inkscape:cy="319.28545"
     inkscape:document-units="px"
     inkscape:current-layer="layer1"
     showgrid="false"
     inkscape:window-width="1309"
     inkscape:window-height="747"
     inkscape:window-x="57"
     inkscape:window-y="21"
     inkscape:window-maximized="1" />
  <metadata
     id="metadata7">
    <rdf:RDF>
      <cc:Work
         rdf:about="">
        <dc:format>image/svg+xml</dc:format>
        <dc:type
           rdf:resource="http://purl.org/dc/dcmitype/StillImage" />
        <dc:title />
      </cc:Work>
    </rdf:RDF>
  </metadata>
  <g
     inkscape:label="Layer 1"
     inkscape:groupmode="layer"
     id="layer1"
     transform="translate(0,-602.36218)">
    <path
       style="fill:#0000ff"
       d="M 394.28125 44.28125 C 349.30949 44.28125 308.59634 63.86248 279.125 95.53125 C 264.38932 111.36563 252.45977 130.21954 244.21875 151.15625 C 240.93217 159.50598 238.24961 168.2024 236.1875 177.15625 L 244.78125 177.15625 C 261.8362 105.00373 322.67414 51.625 395.125 51.625 C 467.57611 51.625 528.42095 105.00334 545.46875 177.15625 L 552.375 177.15625 C 550.31899 168.20388 547.62982 159.50468 544.34375 151.15625 C 536.10273 130.21954 524.17317 111.36563 509.4375 95.53125 C 479.96615 63.86248 439.25301 44.28125 394.28125 44.28125 z M 232.53125 240 C 234.32374 256.4575 238.2535 272.16375 244.21875 287.40625 C 252.1962 307.79033 264.38932 327.19686 279.125 343.03125 C 308.59634 374.70002 349.30949 394.28125 394.28125 394.28125 C 439.25301 394.28125 479.96615 374.70002 509.4375 343.03125 C 524.17317 327.19686 536.10273 308.34297 544.34375 287.40625 C 550.19573 272.53902 554.18082 256.63304 556 240 L 548.90625 240 C 539.025 321.82037 473.961 385 395.125 385 C 316.289 385 251.19797 321.82037 241.3125 240 L 232.53125 240 z "
       transform="translate(0,602.36218)"
       id="path2987" />
    <path
       style="font-size:40px;font-style:normal;font-variant:normal;font-weight:normal;font-stretch:normal;text-align:center;line-height:150.99999905%;letter-spacing:3.96999907px;word-spacing:0px;text-anchor:middle;fill:#f9f9f9;fill-opacity:1;stroke:none;font-family:Serif;-inkscape-font-specification:Serif"
       d="M 165.71875 177.28125 L 165.71875 184.4375 L 617.15625 184.4375 L 617.15625 177.28125 L 165.71875 177.28125 z M 284.4375 191.21875 L 284.4375 193.28125 L 287.875 193.28125 L 287.875 219.53125 L 284.625 219.53125 L 284.625 221.59375 L 294.59375 221.59375 L 294.59375 219.53125 L 291.46875 219.53125 L 291.46875 210.03125 C 291.46874 207.71356 291.90885 205.96095 292.78125 204.75 C 293.65364 203.53908 294.92707 202.93752 296.59375 202.9375 C 298.18228 202.93752 299.29425 203.40627 299.90625 204.34375 C 300.53123 205.26825 300.84373 206.9922 300.84375 209.53125 L 300.84375 219.53125 L 297.71875 219.53125 L 297.71875 221.59375 L 307.65625 221.59375 L 307.65625 219.53125 L 304.4375 219.53125 L 304.4375 208.40625 C 304.43748 205.61981 303.89321 203.56512 302.8125 202.25 C 301.73175 200.93492 300.04165 200.28127 297.75 200.28125 C 296.34374 200.28127 295.1302 200.62763 294.0625 201.34375 C 293.0078 202.05992 292.1328 203.12502 291.46875 204.53125 L 291.46875 191.21875 L 284.4375 191.21875 z M 510.375 191.21875 L 510.375 193.28125 L 513.8125 193.28125 L 513.8125 219.53125 L 510.375 219.53125 L 510.375 221.59375 L 520.8125 221.59375 L 520.8125 219.53125 L 517.40625 219.53125 L 517.40625 191.21875 L 510.375 191.21875 z M 527.15625 191.21875 L 527.15625 193.28125 L 530.59375 193.28125 L 530.59375 219.53125 L 527.15625 219.53125 L 527.15625 221.59375 L 537.59375 221.59375 L 537.59375 219.53125 L 534.1875 219.53125 L 534.1875 191.21875 L 527.15625 191.21875 z M 199.5 192.4375 L 199.5 199.1875 L 201.90625 199.1875 L 201.90625 194.84375 L 217 194.84375 L 198.8125 220.1875 L 198.8125 221.59375 L 223.25 221.59375 L 223.25 215.125 L 220.875 215.125 L 220.875 219.1875 L 204.375 219.1875 L 222.5625 193.84375 L 222.5625 192.4375 L 199.5 192.4375 z M 408.90625 192.4375 L 408.90625 194.53125 L 412.8125 194.53125 L 412.8125 219.53125 L 409.125 219.53125 L 409.125 221.59375 L 418.9375 221.59375 L 418.9375 219.53125 L 415.21875 219.53125 L 415.21875 197 L 425.21875 217.3125 L 427.96875 217.3125 L 437.96875 197 L 437.96875 219.53125 L 434.28125 219.53125 L 434.28125 221.59375 L 445.6875 221.59375 L 445.6875 219.53125 L 441.9375 219.53125 L 441.9375 194.53125 L 445.84375 194.53125 L 445.84375 192.4375 L 437.875 192.4375 L 427.625 213.21875 L 417.40625 192.4375 L 408.90625 192.4375 z M 239.5 200.28125 C 238.3802 200.28127 237.21614 200.41408 236.03125 200.6875 C 234.85937 200.94794 233.65625 201.34117 232.40625 201.875 L 232.40625 206.0625 L 234.25 206.0625 C 234.30208 205.74349 234.37679 205.46745 234.46875 205.1875 C 234.74463 204.34766 235.20898 203.67579 235.84375 203.1875 C 236.6901 202.53648 237.8177 202.21877 239.25 202.21875 C 240.98176 202.21877 242.33072 202.65887 243.28125 203.53125 C 244.24478 204.39064 244.71873 205.58075 244.71875 207.15625 L 244.71875 208.59375 L 239.6875 208.59375 C 236.86197 208.59376 234.67447 209.19012 233.125 210.375 C 231.57552 211.55991 230.8125 213.22657 230.8125 215.375 C 230.8125 217.45834 231.48958 219.11979 232.84375 220.34375 C 234.19791 221.56771 236.00781 222.15625 238.3125 222.15625 C 239.70572 222.15625 240.92707 221.95573 241.96875 221.5 C 243.0104 221.04427 243.92446 220.30729 244.71875 219.34375 L 244.71875 221.59375 L 251.53125 221.59375 L 251.53125 219.53125 L 248.3125 219.53125 L 248.3125 208.625 C 248.31248 205.90366 247.5729 203.85679 246.0625 202.4375 C 244.56509 201.00523 242.37759 200.28127 239.5 200.28125 z M 268.625 200.28125 C 265.60416 200.28127 263.17968 201.25783 261.34375 203.25 C 259.50781 205.22918 258.59375 207.89845 258.59375 211.21875 C 258.59375 214.52605 259.50781 217.1823 261.34375 219.1875 C 262.49121 220.43262 263.88969 221.28308 265.5 221.75 C 266.46619 222.03015 267.49218 222.15625 268.625 222.15625 C 270.91665 222.15625 272.80467 221.59635 274.25 220.4375 C 275.69529 219.27865 276.64842 217.58855 277.15625 215.375 L 274.28125 215.375 C 273.94269 217.00261 273.29946 218.22396 272.375 219.03125 C 271.45051 219.83854 270.23697 220.25 268.6875 220.25 C 266.73436 220.25 265.23957 219.47917 264.25 217.96875 C 263.27343 216.45834 262.78124 214.21355 262.78125 211.21875 C 262.78125 210.47006 262.81315 209.74886 262.875 209.09375 C 263.06054 207.12842 263.53906 205.59181 264.28125 204.46875 C 265.27082 202.95835 266.74739 202.21877 268.6875 202.21875 C 270.39322 202.21877 271.68228 202.63544 272.59375 203.46875 C 273.51821 204.3021 274.13279 205.6146 274.40625 207.4375 L 276.5 207.4375 L 276.5 202.125 C 275.18488 201.50002 273.86457 201.0495 272.5625 200.75 C 271.2604 200.43752 269.94009 200.28127 268.625 200.28125 z M 323.4375 200.28125 C 322.3177 200.28127 321.15364 200.41408 319.96875 200.6875 C 318.79687 200.94794 317.59375 201.34117 316.34375 201.875 L 316.34375 206.0625 L 318.1875 206.0625 C 318.23958 205.74349 318.31429 205.46745 318.40625 205.1875 C 318.68213 204.34766 319.14648 203.67579 319.78125 203.1875 C 320.6276 202.53648 321.7552 202.21877 323.1875 202.21875 C 324.91926 202.21877 326.26822 202.65887 327.21875 203.53125 C 328.18228 204.39064 328.65623 205.58075 328.65625 207.15625 L 328.65625 208.59375 L 323.625 208.59375 C 320.79947 208.59376 318.61197 209.19012 317.0625 210.375 C 315.51302 211.55991 314.75 213.22657 314.75 215.375 C 314.75 217.45834 315.42708 219.11979 316.78125 220.34375 C 317.6276 221.10872 318.65735 221.61938 319.875 221.90625 C 320.36206 222.021 320.85978 222.118 321.40625 222.15625 C 321.67948 222.17537 321.96191 222.15625 322.25 222.15625 C 323.64322 222.15625 324.86457 221.95573 325.90625 221.5 C 326.9479 221.04427 327.86196 220.30729 328.65625 219.34375 L 328.65625 221.59375 L 335.46875 221.59375 L 335.46875 219.53125 L 332.25 219.53125 L 332.25 208.625 C 332.24998 205.90366 331.5104 203.85679 330 202.4375 C 328.50259 201.00523 326.31509 200.28127 323.4375 200.28125 z M 355.78125 200.28125 C 354.19269 200.28127 352.85676 200.64065 351.75 201.34375 C 350.64322 202.03387 349.73437 203.08596 349.03125 204.53125 L 349.03125 200.84375 L 342 200.84375 L 342 202.90625 L 345.4375 202.90625 L 345.4375 219.53125 L 342.1875 219.53125 L 342.1875 221.59375 L 353.1875 221.59375 L 353.1875 219.53125 L 349.03125 219.53125 L 349.03125 210.03125 C 349.03124 207.7396 349.49999 206.00522 350.4375 204.78125 C 351.38801 203.55731 352.72915 202.93752 354.5 202.9375 C 355.47655 202.93752 356.24217 203.17971 356.75 203.6875 C 357.2578 204.19533 357.52863 204.97137 357.59375 206 L 359.65625 206 L 359.65625 200.8125 C 358.94009 200.64325 358.27602 200.49742 357.625 200.40625 C 356.98696 200.31513 356.36717 200.28127 355.78125 200.28125 z M 493.40625 200.28125 C 490.46353 200.28127 488.09114 201.27606 486.28125 203.28125 C 484.47135 205.28647 483.5625 207.93751 483.5625 211.21875 C 483.5625 214.52605 484.47656 217.1823 486.3125 219.1875 C 487.93033 220.93066 490.00622 221.9071 492.53125 222.125 C 492.89197 222.15613 493.24577 222.15625 493.625 222.15625 C 496.13801 222.15625 498.18228 221.58333 499.71875 220.4375 C 501.26821 219.29167 502.33331 217.59115 502.90625 215.3125 L 500 215.3125 C 499.59634 216.94011 498.89061 218.16667 497.875 219 C 496.87238 219.82031 495.57551 220.25 494 220.25 C 491.9427 220.25 490.39843 219.51302 489.34375 218.09375 C 488.28906 216.66146 487.74999 214.54949 487.75 211.75 L 487.75 211.59375 L 503.25 211.59375 C 503.18487 207.90887 502.30467 205.1146 500.625 203.1875 C 498.9453 201.24742 496.54426 200.28127 493.40625 200.28125 z M 554.625 200.28125 C 551.68228 200.28127 549.27864 201.27606 547.46875 203.28125 C 545.65885 205.28647 544.78125 207.93751 544.78125 211.21875 C 544.78125 214.52605 545.69531 217.1823 547.53125 219.1875 C 548.45573 220.18359 549.5293 220.93945 550.75 221.4375 C 551.05518 221.56201 551.36381 221.65662 551.6875 221.75 C 552.33488 221.93677 553.02856 222.06274 553.75 222.125 C 554.11072 222.15613 554.46452 222.15625 554.84375 222.15625 C 557.35676 222.15625 559.36978 221.58333 560.90625 220.4375 C 562.45571 219.29167 563.52081 217.59115 564.09375 215.3125 L 561.21875 215.3125 C 560.81509 216.94011 560.10936 218.16667 559.09375 219 C 558.09113 219.82031 556.79426 220.25 555.21875 220.25 C 553.16145 220.25 551.61718 219.51302 550.5625 218.09375 C 549.50781 216.66146 548.96874 214.54949 548.96875 211.75 L 548.96875 211.59375 L 564.46875 211.59375 C 564.40362 207.90887 563.52342 205.1146 561.84375 203.1875 C 560.16405 201.24742 557.76301 200.28127 554.625 200.28125 z M 585.65625 200.28125 C 584.06769 200.28127 582.70051 200.64065 581.59375 201.34375 C 580.48697 202.03387 579.60937 203.08596 578.90625 204.53125 L 578.90625 200.84375 L 571.875 200.84375 L 571.875 202.90625 L 575.3125 202.90625 L 575.3125 219.53125 L 572.0625 219.53125 L 572.0625 221.59375 L 583.0625 221.59375 L 583.0625 219.53125 L 578.90625 219.53125 L 578.90625 210.03125 C 578.90624 207.7396 579.37499 206.00522 580.3125 204.78125 C 581.26301 203.55731 582.60415 202.93752 584.375 202.9375 C 585.35155 202.93752 586.08592 203.17971 586.59375 203.6875 C 587.10155 204.19533 587.40363 204.97137 587.46875 206 L 589.53125 206 L 589.53125 200.8125 C 588.81509 200.64325 588.15102 200.49742 587.5 200.40625 C 586.86196 200.31513 586.24217 200.28127 585.65625 200.28125 z M 363.53125 200.84375 L 363.53125 202.9375 L 365.90625 202.9375 L 373.65625 221.96875 L 372.28125 225.40625 C 371.79947 226.60416 371.34895 227.39062 370.90625 227.78125 C 370.58398 228.08398 370.1709 228.29931 369.6875 228.375 C 369.52637 228.40023 369.36653 228.40625 369.1875 228.40625 C 368.40625 228.40624 367.8151 228.20312 367.4375 227.8125 C 367.07291 227.43489 366.85937 226.79166 366.78125 225.90625 L 364.9375 225.90625 L 364.9375 229.875 C 365.58854 230.0703 366.23698 230.23957 366.875 230.34375 C 367.52604 230.44791 368.16927 230.49999 368.78125 230.5 C 370.22656 230.49999 371.33072 230.1927 372.125 229.59375 C 372.91926 229.00781 373.66145 227.89583 374.3125 226.28125 L 383.8125 202.9375 L 386.125 202.9375 L 386.125 200.84375 L 378.34375 200.84375 L 378.34375 202.9375 L 381.4375 202.9375 L 375.59375 217.21875 L 369.78125 202.9375 L 373.09375 202.9375 L 373.09375 200.84375 L 363.53125 200.84375 z M 452.875 200.84375 L 452.875 202.9375 L 456.125 202.9375 L 456.125 214.03125 C 456.125 216.83073 456.66927 218.90365 457.75 220.21875 C 458.84374 221.52083 460.53905 222.15625 462.84375 222.15625 C 464.23697 222.15625 465.47655 221.8099 466.53125 221.09375 C 467.58592 220.36458 468.42967 219.31771 469.09375 217.9375 L 469.09375 221.59375 L 476.09375 221.59375 L 476.09375 219.53125 L 472.6875 219.53125 L 472.6875 200.84375 L 465.96875 200.84375 L 465.96875 202.9375 L 469.09375 202.9375 L 469.09375 212.375 C 469.09373 214.70574 468.65363 216.46355 467.78125 217.6875 C 467.6722 217.8405 467.55896 217.99113 467.4375 218.125 C 466.58727 219.06209 465.42707 219.53125 463.96875 219.53125 C 462.3802 219.53125 461.28124 219.0625 460.65625 218.125 C 460.04426 217.1875 459.74999 215.46355 459.75 212.9375 L 459.75 200.84375 L 452.875 200.84375 z M 493.40625 202.21875 C 495.17707 202.21877 496.53124 202.82554 497.46875 204.0625 C 498.41925 205.28647 498.92186 207.10939 499 209.53125 L 487.75 209.53125 C 487.95833 207.12241 488.54947 205.2995 489.5 204.0625 C 489.61881 203.90788 489.7452 203.76029 489.875 203.625 C 490.7836 202.67795 491.9593 202.21877 493.40625 202.21875 z M 554.625 202.21875 C 556.39582 202.21877 557.74999 202.82554 558.6875 204.0625 C 559.638 205.28647 560.14061 207.10939 560.21875 209.53125 L 548.96875 209.53125 C 549.17708 207.12241 549.76822 205.2995 550.71875 204.0625 C 550.83756 203.90788 550.9327 203.76029 551.0625 203.625 C 551.9711 202.67795 553.17805 202.21877 554.625 202.21875 z M 240.09375 210.6875 L 244.71875 210.6875 L 244.71875 215.09375 C 244.71873 216.57813 244.26821 217.76302 243.34375 218.6875 C 242.43228 219.61198 241.21613 220.09375 239.71875 220.09375 C 238.20832 220.09375 237.01041 219.65886 236.125 218.8125 C 235.23958 217.96615 234.81249 216.82032 234.8125 215.375 C 234.8125 214.97787 234.82048 214.59586 234.875 214.25 C 234.98405 213.55827 235.2041 212.98666 235.53125 212.5 C 235.61304 212.37834 235.71708 212.2651 235.8125 212.15625 C 235.90792 212.0474 236.01595 211.93978 236.125 211.84375 C 236.3431 211.6517 236.56869 211.48779 236.84375 211.34375 C 237.11881 211.19971 237.41797 211.06478 237.75 210.96875 C 238.41406 210.77669 239.20182 210.68751 240.09375 210.6875 z M 324.03125 210.6875 L 328.65625 210.6875 L 328.65625 215.09375 C 328.65623 216.57813 328.20571 217.76302 327.28125 218.6875 C 326.36978 219.61198 325.15363 220.09375 323.65625 220.09375 C 322.14582 220.09375 320.94791 219.65886 320.0625 218.8125 C 319.17708 217.96615 318.74999 216.82032 318.75 215.375 C 318.75 214.97787 318.75798 214.59586 318.8125 214.25 C 318.92155 213.55827 319.1416 212.98666 319.46875 212.5 C 319.55054 212.37834 319.65458 212.2651 319.75 212.15625 C 319.84542 212.0474 319.95345 211.93978 320.0625 211.84375 C 320.2806 211.6517 320.50619 211.48779 320.78125 211.34375 C 321.05631 211.19971 321.35547 211.06478 321.6875 210.96875 C 322.35156 210.77669 323.13932 210.68751 324.03125 210.6875 z M 165.71875 234.5625 L 165.71875 241.71875 L 617.15625 241.71875 L 617.15625 234.5625 L 165.71875 234.5625 z "
       transform="translate(0,602.36218)"
       id="flowRoot3007" />
  </g>
</svg>
