<?xml version="1.0" encoding="UTF-8" standalone="no"?>
<!-- Created with Inkscape (http://www.inkscape.org/) -->

<svg
   xmlns:dc="http://purl.org/dc/elements/1.1/"
   xmlns:cc="http://creativecommons.org/ns#"
   xmlns:rdf="http://www.w3.org/1999/02/22-rdf-syntax-ns#"
   xmlns:svg="http://www.w3.org/2000/svg"
   xmlns="http://www.w3.org/2000/svg"
   xmlns:sodipodi="http://sodipodi.sourceforge.net/DTD/sodipodi-0.dtd"
   xmlns:inkscape="http://www.inkscape.org/namespaces/inkscape"
   width="800"
   height="450"
   id="svg2"
   version="1.1"
   inkscape:version="0.48.4 r9939"
   sodipodi:docname="indexMid.svg">
  <defs
     id="defs4" />
  <sodipodi:namedview
     id="base"
     pagecolor="#000000"
     bordercolor="#666666"
     borderopacity="1.0"
     inkscape:pageopacity="0"
     inkscape:pageshadow="2"
     inkscape:zoom="0.7"
     inkscape:cx="185.49315"
     inkscape:cy="339.01886"
     inkscape:document-units="px"
     inkscape:current-layer="layer1"
     showgrid="false"
     inkscape:window-width="1309"
     inkscape:window-height="747"
     inkscape:window-x="57"
     inkscape:window-y="21"
     inkscape:window-maximized="1" />
  <metadata
     id="metadata7">
    <rdf:RDF>
      <cc:Work
         rdf:about="">
        <dc:format>image/svg+xml</dc:format>
        <dc:type
           rdf:resource="http://purl.org/dc/dcmitype/StillImage" />
        <dc:title />
      </cc:Work>
    </rdf:RDF>
  </metadata>
  <g
     inkscape:label="Layer 1"
     inkscape:groupmode="layer"
     id="layer1"
     transform="translate(0,-602.36218)">
    <path
       style="fill:#0000ff"
       d="m 394.29018,646.65236 c -44.97176,0 -85.68491,19.58123 -115.15625,51.25 -14.73568,15.83438 -26.66523,34.68829 -34.90625,55.625 -8.24102,20.93672 -12.8125,43.96253 -12.8125,68.125 0,24.16245 4.39272,46.61065 12.8125,68.125 7.97745,20.38408 20.17057,39.79061 34.90625,55.625 29.47134,31.66877 70.18449,51.25 115.15625,51.25 44.97176,0 85.6849,-19.58123 115.15625,-51.25 14.73567,-15.83439 26.66523,-34.68828 34.90625,-55.625 8.24102,-20.93671 12.78125,-43.96255 12.78125,-68.125 0,-24.16247 -4.54023,-47.18828 -12.78125,-68.125 -8.24102,-20.93671 -20.17058,-39.79062 -34.90625,-55.625 -29.47135,-31.66877 -70.18449,-51.25 -115.15625,-51.25 z m 0.84375,7.34375 c 85.67015,0 155.09375,74.62966 155.09375,166.6875 0,92.05784 -69.4236,166.6875 -155.09375,166.6875 -85.67015,0 -155.125,-74.62966 -155.125,-166.6875 0,-92.05784 69.45485,-166.6875 155.125,-166.6875 z"
       id="path2987"
       inkscape:connector-curvature="0" />
    <flowRoot
       xml:space="preserve"
       id="flowRoot3007"
       style="font-size:40px;font-style:normal;font-variant:normal;font-weight:normal;font-stretch:normal;text-align:center;line-height:150.99999905%;letter-spacing:3.96999907px;word-spacing:0px;text-anchor:middle;fill:#f9f9f9;fill-opacity:1;stroke:none;font-family:Serif;-inkscape-font-specification:Serif"
       transform="translate(12.571428,648.64789)"><flowRegion
         id="flowRegion3009"><rect
           id="rect3011"
           width="427.14285"
           height="117.14285"
           x="167.14285"
           y="127.14286"
           style="font-style:normal;font-variant:normal;font-weight:normal;font-stretch:normal;text-align:center;line-height:150.99999905%;letter-spacing:3.96999907px;text-anchor:middle;fill:#f9f9f9;font-family:Serif;-inkscape-font-specification:Serif" /></flowRegion><flowPara
         id="flowPara3013">Zachary Mueller</flowPara></flowRoot>    <flowRoot
       transform="translate(12.571428,648.64789)"
       style="font-size:40px;font-style:normal;font-variant:normal;font-weight:normal;font-stretch:normal;text-align:center;line-height:150.99999905%;letter-spacing:3.96999907px;word-spacing:0px;text-anchor:middle;fill:#f9f9f9;fill-opacity:1;stroke:none;font-family:Serif;-inkscape-font-specification:Serif"
       id="flowRoot2987"
       xml:space="preserve"><flowRegion
         id="flowRegion2989"><rect
           style="font-style:normal;font-variant:normal;font-weight:normal;font-stretch:normal;text-align:center;line-height:150.99999905%;letter-spacing:3.96999907px;text-anchor:middle;fill:#f9f9f9;font-family:Serif;-inkscape-font-specification:Serif"
           y="127.14286"
           x="167.14285"
           height="117.14285"
           width="427.14285"
           id="rect2991" /></flowRegion><flowPara
         id="flowPara2993">Zachary Mueller</flowPara></flowRoot>    <rect
       style="fill:#ffffff;fill-opacity:1"
       id="rect3769"
       width="451.42856"
       height="7.1428561"
       x="165.71429"
       y="836.93365" />
    <rect
       style="fill:#ffffff;fill-opacity:1"
       id="rect3769-2"
       width="451.42856"
       height="7.1428561"
       x="165.71431"
       y="779.64789" />
  </g>
</svg>
